
<svg version="1.0" xmlns="http://www.w3.org/2000/svg"
 width="200px" height="200px" viewBox="0 0 200 200"
 preserveAspectRatio="xMidYMid meet">
<g transform="translate(0.000000,177.000000) scale(0.100000,-0.100000)"
fill="#000000" stroke="none">
<path d="M869 1341 c-16 -27 -22 -29 -110 -37 -52 -5 -109 -8 -126 -7 -36 3
-41 -10 -19 -39 16 -22 30 -23 22 -3 -5 13 11 15 106 15 l111 0 -7 -100 -6
-100 40 44 c40 43 40 45 34 100 l-7 56 112 0 c108 0 112 -1 106 -20 -8 -26 15
-18 33 11 16 25 6 42 -21 35 -18 -4 -162 8 -214 19 -12 3 -25 16 -30 30 l-8
25 -16 -29z"/>
<path d="M1024 958 c-10 -15 16 -46 52 -63 47 -22 112 -13 149 21 14 13 25 29
23 35 -4 12 -217 18 -224 7z"/>
<path d="M510 951 c0 -16 59 -59 90 -66 39 -9 83 1 115 26 51 41 35 49 -90 49
-63 0 -115 -4 -115 -9z"/>
<path d="M917 854 c-16 -17 -4 -24 39 -24 32 0 44 4 42 13 -5 13 -69 22 -81
11z"/>
<path d="M705 809 c-4 -6 -5 -13 -2 -16 7 -7 27 6 27 18 0 12 -17 12 -25 -2z"/>
<path d="M890 805 c-11 -13 0 -15 85 -15 85 0 96 2 85 15 -9 11 -33 15 -85 15
-52 0 -76 -4 -85 -15z"/>
<path d="M630 760 c-10 -19 -8 -20 40 -20 43 0 50 3 50 20 0 17 -7 20 -40 20
-29 0 -42 -5 -50 -20z"/>
<path d="M862 768 c-7 -7 -12 -16 -12 -20 0 -4 65 -8 145 -8 80 0 145 2 145 4
0 2 -3 11 -6 20 -5 13 -27 16 -133 16 -85 0 -131 -4 -139 -12z"/>
<path d="M436 591 c-7 -11 -3 -33 21 -118 22 -80 41 -72 85 35 20 48 35 88 34
89 -1 1 -11 0 -23 -3 -13 -4 -25 -20 -33 -45 -7 -21 -17 -39 -21 -39 -4 0 -12
19 -16 42 -8 42 -33 62 -47 39z"/>
<path d="M713 593 c-8 -3 -13 -23 -13 -49 0 -53 -11 -51 -41 7 -13 27 -26 39
-37 37 -13 -3 -17 -19 -20 -87 -3 -66 -1 -82 10 -79 7 3 15 15 16 29 6 42 20
44 42 5 24 -39 32 -43 49 -22 17 20 11 164 -6 159z"/>
<path d="M858 593 c-11 -3 -18 -15 -19 -31 0 -15 -4 -53 -8 -85 l-7 -58 50 3
c40 2 52 7 54 22 3 16 0 18 -23 12 l-28 -7 5 75 c3 42 2 75 -1 75 -3 -1 -14
-3 -23 -6z"/>
<path d="M1023 592 c-6 -4 -19 -27 -29 -52 -9 -25 -22 -50 -29 -55 -17 -14
-12 -59 8 -63 10 -2 17 3 17 12 0 22 56 21 68 0 6 -11 16 -14 30 -10 20 7 20
8 -9 88 -16 45 -29 83 -29 85 0 5 -14 3 -27 -5z m17 -93 c0 -11 -7 -19 -16
-19 -11 0 -14 5 -10 16 3 9 6 20 6 25 0 6 5 7 10 4 6 -3 10 -15 10 -26z"/>
<path d="M1136 592 c-7 -11 38 -163 49 -165 5 -1 19 13 31 31 l22 32 12 -35
c7 -20 17 -34 23 -32 11 3 46 90 60 149 6 22 4 25 -12 21 -11 -3 -23 -21 -31
-46 l-13 -42 -7 31 c-9 43 -18 54 -36 47 -10 -4 -14 -13 -10 -27 3 -11 -1 -29
-9 -39 -13 -17 -14 -16 -24 20 -6 21 -11 44 -11 51 0 13 -36 17 -44 4z"/>
</g>
</svg>
